<svg xmlns="http://www.w3.org/2000/svg" viewBox="0 0 800 300" fill="none">
  <defs>
    <linearGradient id="carBody" x1="0" y1="0" x2="1" y2="1">
      <stop offset="0%" stop-color="#e10600"/>
      <stop offset="55%" stop-color="#8a0400"/>
      <stop offset="100%" stop-color="#3d0200"/>
    </linearGradient>
    <linearGradient id="carGlass" x1="0" y1="0" x2="0" y2="1">
      <stop offset="0%" stop-color="#2a2c30"/>
      <stop offset="100%" stop-color="#0c0d0f"/>
    </linearGradient>
  </defs>
  <!-- Soya -->
  <ellipse cx="400" cy="268" rx="330" ry="14" fill="#000" opacity="0.35"/>
  <!-- Kuzov -->
  <path d="M60,220
           C60,200 90,190 130,185
           L190,140 C230,110 300,95 380,95
           L520,95 C590,95 640,120 680,150
           L730,175
           C755,182 770,195 770,215
           L770,225 C770,232 764,238 757,238
           L700,238
           L700,225 C700,205 685,190 665,190
           C645,190 630,205 630,225
           L630,238
           L250,238
           L250,225 C250,205 235,190 215,190
           C195,190 180,205 180,225
           L180,238
           L90,238
           C73,238 60,232 60,220 Z"
        fill="url(#carBody)" stroke="#1a0000" stroke-width="2"/>
  <!-- Deraza -->
  <path d="M220,145 C255,118 310,103 380,103 L500,103 C555,103 595,120 625,145
           L610,150 L235,150 Z" fill="url(#carGlass)" opacity="0.92"/>
  <!-- Kapot chizig'i -->
  <path d="M130,185 L380,175 L520,175 L680,150" stroke="#ff6b60" stroke-width="1.5" opacity="0.4" fill="none"/>
  <!-- Old chiroq -->
  <ellipse cx="745" cy="195" rx="14" ry="8" fill="#ffe680" opacity="0.9"/>
  <!-- Orqa g'ildirak -->
  <circle cx="215" cy="225" r="38" fill="#0c0d0f" stroke="#3a3a3a" stroke-width="3"/>
  <circle cx="215" cy="225" r="18" fill="#4a4a4a"/>
  <circle cx="215" cy="225" r="6" fill="#8a8a8a"/>
  <!-- Old g'ildirak -->
  <circle cx="665" cy="225" r="38" fill="#0c0d0f" stroke="#3a3a3a" stroke-width="3"/>
  <circle cx="665" cy="225" r="18" fill="#4a4a4a"/>
  <circle cx="665" cy="225" r="6" fill="#8a8a8a"/>
  <!-- Poyga chizig'i (racing stripe) -->
  <path d="M90,150 L680,120" stroke="#ffffff" stroke-width="6" opacity="0.12"/>
</svg>
